<?xml version="1.0" encoding="UTF-8" standalone="no"?><!DOCTYPE svg PUBLIC "-//W3C//DTD SVG 1.1//EN" "http://www.w3.org/Graphics/SVG/1.1/DTD/svg11.dtd"><svg width="100%" height="100%" viewBox="0 0 256 256" version="1.1" xmlns="http://www.w3.org/2000/svg" xmlns:xlink="http://www.w3.org/1999/xlink" xml:space="preserve" xmlns:serif="http://www.serif.com/" style="fill-rule:evenodd;clip-rule:evenodd;stroke-linejoin:round;stroke-miterlimit:2;"><g><path d="M256,51.2c0,-28.258 -22.942,-51.2 -51.2,-51.2l-153.6,0c-28.258,0 -51.2,22.942 -51.2,51.2l-0,153.6c-0,28.258 22.942,51.2 51.2,51.2l153.6,0c28.258,0 51.2,-22.942 51.2,-51.2l0,-153.6Z" style="fill:#f1c11b;"/><g><g><path d="M173.615,51.232c24.524,-0 44.403,19.882 44.403,44.406c-0,24.522 -19.879,44.405 -44.403,44.405c-24.524,-0 -44.405,-19.883 -44.405,-44.405c0,-24.524 19.881,-44.406 44.405,-44.406" style="fill:#f1c11b;"/><path d="M81.398,51.232c24.524,-0 44.404,19.882 44.404,44.406c-0,24.522 -19.88,44.405 -44.404,44.405c-24.527,-0 -44.405,-19.883 -44.405,-44.405c0,-24.524 19.878,-44.406 44.405,-44.406" style="fill:#f1c11b;"/><path d="M128,80.091c4.171,-12.367 13.243,-23.046 26.045,-28.898c6.888,-3.149 14.125,-4.569 21.225,-4.438l40.654,-0c4.568,-0 7.281,2.819 6.574,7.276c-1.012,6.374 -3.815,13.783 -5.186,18.081c0.58,1.056 1.127,2.141 1.636,3.256c11.246,24.598 0.422,53.654 -24.177,64.901c-19.699,9.008 -42.261,3.857 -56.243,-11.188c-2.243,3.303 -4.488,6.605 -6.735,9.907c-2.548,4.421 -4.901,4.232 -7.836,-0.083l-6.594,-9.707c-13.991,14.956 -36.488,20.056 -56.137,11.071c-24.597,-11.247 -35.419,-40.303 -24.173,-64.901c0.507,-1.109 1.051,-2.191 1.629,-3.245c-1.367,-4.296 -4.178,-11.712 -5.186,-18.092c-0.711,-4.457 1.999,-7.276 6.571,-7.276l40.665,-0c7.1,-0.131 14.337,1.289 21.223,4.438c12.803,5.852 21.874,16.531 26.045,28.898Zm-63.785,53.646c20.989,9.597 45.786,0.359 55.381,-20.63c9.596,-20.99 0.36,-45.785 -20.627,-55.381c-20.989,-9.599 -45.789,-0.361 -55.381,20.628c-9.599,20.99 -0.362,45.788 20.627,55.383Zm127.571,0c-20.989,9.597 -45.787,0.359 -55.381,-20.63c-9.598,-20.99 -0.361,-45.785 20.627,-55.381c20.989,-9.599 45.788,-0.361 55.382,20.628c9.601,20.99 0.361,45.788 -20.628,55.383Zm-17.526,-70.86c18.15,0 32.857,14.71 32.857,32.854c0,18.145 -14.707,32.856 -32.857,32.856c-18.143,0 -32.853,-14.711 -32.853,-32.856c0,-18.144 14.71,-32.854 32.853,-32.854Zm-92.669,0c18.145,0 32.855,14.71 32.855,32.854c-0,18.145 -14.71,32.856 -32.855,32.856c-18.147,0 -32.853,-14.711 -32.853,-32.856c-0,-18.144 14.706,-32.854 32.853,-32.854Z" style="fill:#221714;"/><path d="M69.309,66.818c6.425,0 11.636,5.209 11.636,11.635c0,6.423 -5.211,11.632 -11.636,11.632c-6.424,-0 -11.635,-5.209 -11.635,-11.632c-0,-6.426 5.211,-11.635 11.635,-11.635" style="fill:#fff;"/><path d="M161.979,66.818c6.427,0 11.635,5.209 11.635,11.635c-0,6.423 -5.208,11.632 -11.635,11.632c-6.423,-0 -11.634,-5.209 -11.634,-11.632c0,-6.426 5.211,-11.635 11.634,-11.635" style="fill:#fff;"/></g><g><path d="M120.56,206.309c0.724,-0.771 1.313,-1.681 1.724,-2.809c0.427,-1.174 0.667,-2.613 0.667,-4.404l-0,-29.443l-14.68,-0l0,39.601l-4.057,-0l-0,-43.659l22.794,-0l0,33.501c0,2.266 -0.329,4.159 -0.919,5.784c-0.609,1.668 -1.492,3.025 -2.58,4.188l-2.949,-2.759Zm-42.261,-0c0.721,-0.771 1.311,-1.681 1.721,-2.809c0.427,-1.174 0.667,-2.613 0.667,-4.404l-0,-29.443l-14.68,-0l0,39.601l-4.057,-0l0,-43.659l22.794,-0l0,33.501c0,2.266 -0.328,4.159 -0.919,5.784c-0.609,1.668 -1.491,3.025 -2.579,4.188l-2.947,-2.759Zm73.523,-15.401l0,10.921c0,0.558 0.063,1.011 0.181,1.367c0.106,0.325 0.251,0.543 0.421,0.663c0.155,0.112 0.379,0.168 0.648,0.168c0.29,0 0.614,-0.06 0.966,-0.177l2.906,-0.962l1.266,3.851l-2.907,0.963c-0.763,0.252 -1.515,0.381 -2.231,0.381c-1.115,0 -2.141,-0.304 -3.011,-0.926c-0.857,-0.616 -1.518,-1.509 -1.909,-2.693c-0.251,-0.758 -0.389,-1.638 -0.389,-2.635l-0,-36.494l4.059,-0l0,0.003l15.109,0l-0,25.57l-8.479,-0c0.755,2.062 1.705,4.119 2.794,6.062l4.562,-3.709l2.552,3.139l-4.945,4.019c1.507,2.134 3.156,3.969 4.837,5.291l-2.505,3.187c-2.609,-2.056 -5.11,-5.09 -7.21,-8.542c-1.79,-2.935 -3.303,-6.204 -4.363,-9.447l-2.352,-0Zm27.683,-21.661l-5.498,0l-0,-4.057l8.436,0c0.879,0 1.847,-0.248 2.756,-0.691c0.873,-0.426 1.66,-1.01 2.234,-1.7l2.573,3.169c-0.873,0.897 -1.923,1.635 -3.034,2.175c-1.088,0.533 -2.26,0.889 -3.408,1.032l0,7.009l5.789,-0l0,4.059l-5.789,0l0,28.448l-4.059,-0l0,-28.448l-5.789,0l0,-4.059l5.789,-0l0,-6.937Zm26.467,21.83l3.6,-0l0,4.058l-3.6,-0l0,13.556l-4.058,-0l-0,-13.556l-11.146,-0l-0,-4.058l11.146,-0l-0,-27.852l4.058,-0l0,27.852Zm-65.359,17.064l-8.103,-0l0,-42.575l12.787,-0l-0,37.891c-0,1.285 -0.528,2.453 -1.375,3.301l-0.008,0.008c-0.849,0.847 -2.017,1.375 -3.301,1.375Zm-82.965,-34.746l3.177,0l-0,4.057l-3.177,-0l0,9.886c0,1.778 -0.16,3.627 -0.463,5.477l4.472,8.576l-3.583,1.868l-2.355,-4.518c-1.134,3.379 -2.738,6.49 -4.687,8.836l-3.106,-2.586c1.678,-2.016 3.071,-4.792 4.059,-7.844c1.029,-3.171 1.606,-6.618 1.606,-9.809l0,-21.892l4.057,0l0,7.949Zm42.264,0l3.177,0l0,4.057l-3.177,-0l0,9.886c0,1.777 -0.16,3.626 -0.463,5.475l4.472,8.578l-3.584,1.868l-2.355,-4.517c-1.134,3.379 -2.735,6.489 -4.686,8.835l-3.107,-2.586c1.679,-2.016 3.072,-4.792 4.061,-7.844c1.027,-3.171 1.605,-6.618 1.605,-9.809l-0,-21.892l4.057,0l0,7.949Zm41.325,5.118l0,-8.89l-4.669,0l-0,34.461l4.045,-0c0.172,-0 0.33,-0.071 0.443,-0.182c0.113,-0.114 0.181,-0.27 0.181,-0.445l0,-8.08l-3.135,0l0,-4.058l3.135,0l0,-8.747l-3.135,-0l0,-4.059l3.135,0Zm47.793,5.224l-0,11.944c-0,1.207 0.203,2.5 0.563,3.68c0.308,1.005 0.725,1.922 1.221,2.619l-3.683,1.767c-0.572,-0.942 -1.049,-2.046 -1.405,-3.213c-0.482,-1.581 -0.754,-3.285 -0.754,-4.853l0,-11.944l4.058,0Zm-10.883,0l-0,11.944c-0,1.568 -0.272,3.272 -0.755,4.853c-0.352,1.151 -0.82,2.241 -1.382,3.173l-3.678,-1.765c0.484,-0.691 0.891,-1.592 1.192,-2.58c0.362,-1.181 0.564,-2.474 0.564,-3.681l0,-11.944l4.059,0Zm-61.315,18.317l-6.365,-0l0,-28.971l10.288,-0l0,25.049c0,1.079 -0.44,2.062 -1.15,2.772c-0.71,0.71 -1.693,1.15 -2.773,1.15Zm-42.263,-0l-6.366,-0l-0,-28.971l10.287,-0l-0,25.048c-0,1.08 -0.439,2.063 -1.149,2.773c-0.709,0.71 -1.692,1.15 -2.772,1.15Zm39.956,-4.057l2.174,-0l0,-20.856l-2.174,0l-0,20.856Zm-42.265,-0l2.175,-0l-0,-20.856l-2.175,0l-0,20.856Zm22.408,-24.845l-0,9.66c-0,1.552 -0.274,3.229 -0.756,4.776c-0.481,1.542 -1.19,2.979 -2.067,4.074l-3.155,-2.536c0.549,-0.685 1.015,-1.657 1.355,-2.744c0.36,-1.155 0.563,-2.41 0.563,-3.57l0,-9.66l4.06,-0Zm-42.265,-0l0,9.66c0,1.552 -0.272,3.229 -0.755,4.776c-0.481,1.542 -1.189,2.979 -2.067,4.074l-3.153,-2.536c0.548,-0.685 1.014,-1.657 1.353,-2.744c0.361,-1.155 0.565,-2.41 0.565,-3.57l-0,-9.66l4.057,-0Zm99.419,3.032l9.206,-0l0,4.059l-9.206,0l0,6.608l11.049,-0l0,-17.456l-11.049,-0l0,6.789Zm42.093,0.436c0.478,0.768 1.08,1.427 1.775,1.955c0.681,0.518 1.451,0.907 2.272,1.14c0.3,0.086 0.602,0.148 0.896,0.189c0.317,0.044 0.62,0.066 0.908,0.066l-0,4.042c-0.506,-0 -0.993,-0.033 -1.462,-0.099c-0.489,-0.066 -0.967,-0.168 -1.434,-0.299c-1.318,-0.374 -2.551,-0.996 -3.636,-1.823c-1.08,-0.82 -2.018,-1.843 -2.76,-3.03l3.441,-2.141Zm-0,-9.296c0.478,0.768 1.08,1.428 1.775,1.954c0.681,0.519 1.451,0.908 2.272,1.141c0.3,0.084 0.599,0.147 0.896,0.189c0.278,0.038 0.583,0.058 0.908,0.058l-0,4.058c-0.468,0 -0.957,-0.035 -1.462,-0.106c-0.489,-0.068 -0.967,-0.168 -1.434,-0.299c-1.318,-0.373 -2.551,-0.995 -3.639,-1.823c-1.077,-0.821 -2.015,-1.845 -2.757,-3.032l3.441,-2.14Z" style="fill:#221714;fill-rule:nonzero;"/></g></g></g></svg>