<?xml version="1.0" encoding="UTF-8" standalone="no"?><!DOCTYPE svg PUBLIC "-//W3C//DTD SVG 1.1//EN" "http://www.w3.org/Graphics/SVG/1.1/DTD/svg11.dtd"><svg width="100%" height="100%" viewBox="0 0 720 180" version="1.1" xmlns="http://www.w3.org/2000/svg" xmlns:xlink="http://www.w3.org/1999/xlink" xml:space="preserve" xmlns:serif="http://www.serif.com/" style="fill-rule:evenodd;clip-rule:evenodd;stroke-linejoin:round;stroke-miterlimit:2;"><path d="M81.312,26.529c34.98,0 63.336,28.355 63.336,63.337c0,34.98 -28.356,63.336 -63.336,63.336c-34.979,0 -63.338,-28.356 -63.338,-63.336c0,-34.982 28.359,-63.337 63.338,-63.337Zm133.135,0c34.98,0 63.335,28.355 63.335,63.337c0,34.98 -28.355,63.336 -63.335,63.336c-34.982,0 -63.336,-28.356 -63.336,-63.336c0,-34.982 28.354,-63.337 63.336,-63.337Z" style="fill:#e9be2a;"/><path d="M80.527,20.14c10.069,-0.161 20.333,1.865 30.105,6.333c18.262,8.35 31.201,23.582 37.15,41.218c5.95,-17.637 18.889,-32.868 37.15,-41.218c9.776,-4.469 20.045,-6.495 30.118,-6.333l58.141,0c6.514,0 10.384,4.021 9.377,10.38c-1.443,9.093 -5.441,19.665 -7.397,25.788c0.83,1.511 1.609,3.06 2.335,4.649c16.041,35.084 0.601,76.531 -34.487,92.571c-28.098,12.846 -60.278,5.502 -80.222,-15.959c-3.202,4.71 -6.403,9.421 -9.598,14.13c-3.642,6.306 -7,6.035 -11.181,-0.117l-9.407,-13.844c-19.955,21.331 -52.04,28.602 -80.066,15.79c-35.087,-16.04 -50.527,-57.487 -34.484,-92.571c0.723,-1.582 1.498,-3.125 2.325,-4.63c-1.954,-6.12 -5.959,-16.704 -7.404,-25.807c-1.006,-6.359 2.866,-10.38 9.377,-10.38l58.168,0Zm-23.725,124.07c29.939,13.688 65.309,0.514 78.999,-29.425c13.685,-29.937 0.514,-65.309 -29.428,-78.997c-29.94,-13.689 -65.304,-0.511 -78.994,29.426c-13.688,29.94 -0.516,65.309 29.423,78.996Zm181.961,-0c-29.94,13.688 -65.307,0.514 -78.997,-29.425c-13.688,-29.937 -0.514,-65.309 29.426,-78.997c29.939,-13.689 65.308,-0.511 78.996,29.426c13.685,29.94 0.514,65.309 -29.425,78.996Z" style="fill:#060001;"/><path d="M80.467,12.14l-58.108,0c-5.865,0 -10.411,2.146 -13.395,5.389c-3.133,3.406 -4.835,8.225 -3.884,14.241c0,0.001 0.001,0.003 0.001,0.004c1.286,8.104 4.475,17.341 6.654,23.854c-0.325,0.661 -0.642,1.329 -0.95,2.003c-17.88,39.102 -0.672,85.296 38.434,103.173c28.053,12.824 59.755,7.592 82.035,-10.829l4.147,6.104c4.113,6.051 8.621,8.135 12.196,8.23c3.844,0.103 8.504,-1.801 12.377,-8.347c1.383,-2.038 2.773,-4.085 4.163,-6.132c22.29,18.538 54.084,23.832 82.208,10.974c39.106,-17.877 56.314,-64.07 38.437,-103.172c-0.311,-0.681 -0.631,-1.356 -0.96,-2.024c2.18,-6.512 5.363,-15.739 6.647,-23.834c0,-0.001 0,-0.002 0.001,-0.003c0.952,-6.016 -0.749,-10.836 -3.882,-14.242c-2.983,-3.242 -7.53,-5.389 -13.397,-5.389l-58.08,0c-11.207,-0.17 -22.63,2.086 -33.505,7.057c-0,0 -0.001,0 -0.001,0.001c-14.517,6.637 -26.016,17.177 -33.823,29.808c-7.807,-12.631 -19.306,-23.171 -33.823,-29.809c-0,0 -0,0 -0,0c-10.884,-4.976 -22.315,-7.231 -33.53,-7.056l0.038,-0.001Zm0.06,8c10.069,-0.161 20.333,1.865 30.105,6.333c18.262,8.35 31.201,23.582 37.15,41.218c5.95,-17.637 18.889,-32.868 37.15,-41.218c9.776,-4.469 20.045,-6.495 30.118,-6.333l58.141,0c6.514,0 10.384,4.021 9.377,10.38c-1.443,9.093 -5.441,19.665 -7.397,25.788c0.83,1.511 1.609,3.06 2.335,4.649c16.041,35.084 0.601,76.531 -34.487,92.571c-28.098,12.846 -60.278,5.502 -80.222,-15.959c-3.202,4.71 -6.403,9.421 -9.598,14.13c-3.642,6.306 -7,6.035 -11.181,-0.117l-9.407,-13.844c-19.955,21.331 -52.04,28.602 -80.066,15.79c-35.087,-16.04 -50.527,-57.487 -34.484,-92.571c0.723,-1.582 1.498,-3.125 2.325,-4.63c-1.954,-6.12 -5.959,-16.704 -7.404,-25.807c-1.006,-6.359 2.866,-10.38 9.377,-10.38l58.168,0Zm-23.725,124.07c29.939,13.688 65.309,0.514 78.999,-29.425c13.685,-29.937 0.514,-65.309 -29.428,-78.997c-29.94,-13.689 -65.304,-0.511 -78.994,29.426c-13.688,29.94 -0.516,65.309 29.423,78.996Zm181.961,0c-29.94,13.688 -65.307,0.514 -78.997,-29.425c-13.688,-29.937 -0.514,-65.309 29.426,-78.997c29.939,-13.689 65.308,-0.511 78.996,29.426c13.685,29.94 0.514,65.309 -29.425,78.996Zm-178.635,-7.276c0,0 0,0 0,0c-25.92,-11.85 -37.324,-42.472 -25.473,-68.393c11.852,-25.919 42.47,-37.329 68.391,-25.477c0.001,-0 0.001,-0 0.001,-0c25.923,11.851 37.326,42.475 25.478,68.395c-11.853,25.92 -42.476,37.326 -68.397,25.475Zm175.309,0c-0,0 -0,0 -0,0c-25.922,11.851 -56.543,0.445 -68.395,-25.476c-11.851,-25.919 -0.445,-56.543 25.476,-68.394c0,-0 0.001,-0 0.001,-0c25.92,-11.852 56.542,-0.443 68.393,25.476c11.848,25.922 0.446,56.544 -25.475,68.394Z" style="fill:#e9be2a;"/><path d="M81.588,43.138c25.88,0 46.86,20.98 46.86,46.862c-0,25.88 -20.98,46.861 -46.86,46.861c-25.88,0 -46.861,-20.981 -46.861,-46.861c-0,-25.882 20.981,-46.862 46.861,-46.862Zm132.181,0c25.882,0 46.859,20.98 46.859,46.862c0,25.88 -20.977,46.861 -46.859,46.861c-25.88,0 -46.861,-20.981 -46.861,-46.861c0,-25.882 20.981,-46.862 46.861,-46.862Z" style="fill:#060001;"/><path d="M64.069,48.761c9.163,0 16.592,7.429 16.592,16.592c0,9.164 -7.429,16.593 -16.592,16.593c-9.161,0 -16.59,-7.429 -16.59,-16.593c0,-9.163 7.429,-16.592 16.59,-16.592Zm132.18,-0c9.164,-0 16.593,7.429 16.593,16.592c0,9.164 -7.429,16.593 -16.593,16.593c-9.163,0 -16.589,-7.429 -16.589,-16.593c0,-9.163 7.426,-16.592 16.589,-16.592Z" style="fill:#fff;"/><path d="M403.341,152.161c1.68,-1.793 3.05,-3.907 4.003,-6.523c0.993,-2.731 1.544,-6.07 1.544,-10.236l0,-68.39l-34.093,0l0,91.991l-9.428,0l0,-101.417l52.95,0l0,77.816c0,5.27 -0.763,9.666 -2.136,13.436c-1.415,3.877 -3.465,7.033 -5.99,9.731l-6.85,-6.408Zm98.179,-0c1.677,-1.793 3.043,-3.907 4.001,-6.523c0.992,-2.731 1.546,-6.07 1.546,-10.236l0,-68.39l-34.098,-0l0,91.991l-9.426,-0l0,-101.417l52.95,-0l0,77.816c0,5.27 -0.763,9.666 -2.133,13.436c-1.417,3.877 -3.466,7.033 -5.993,9.731l-6.847,-6.408Zm72.612,-35.773l0,25.37c0,1.292 0.15,2.346 0.427,3.172c0.242,0.754 0.582,1.26 0.974,1.539c0.361,0.261 0.878,0.39 1.504,0.39c0.669,-0 1.427,-0.138 2.241,-0.41l6.751,-2.235l2.947,8.948l-6.753,2.234c-1.776,0.589 -3.52,0.887 -5.186,0.887c-2.588,-0 -4.975,-0.706 -6.993,-2.156c-1.994,-1.427 -3.527,-3.502 -4.437,-6.252c-0.582,-1.762 -0.901,-3.801 -0.901,-6.117l0,-84.776l9.426,-0l0,0.006l35.101,-0l0,59.4l-19.698,-0c1.754,4.788 3.961,9.568 6.49,14.079l10.6,-8.617l5.927,7.292l-11.487,9.338c3.501,4.957 7.328,9.218 11.23,12.293l-5.812,7.396c-6.064,-4.772 -11.871,-11.814 -16.75,-19.837c-4.154,-6.821 -7.671,-14.409 -10.131,-21.944l-5.47,-0Zm64.31,-50.316l-12.771,-0l0,-9.426l19.596,-0c2.039,-0 4.289,-0.578 6.399,-1.607c2.028,-0.988 3.86,-2.344 5.186,-3.952l5.982,7.366c-2.031,2.083 -4.464,3.799 -7.043,5.055c-2.535,1.235 -5.257,2.063 -7.921,2.397l0,16.281l13.451,0l0,9.426l-13.451,0l0,66.083l-9.428,0l0,-66.083l-13.448,0l0,-9.426l13.448,0l0,-16.114Zm61.477,50.706l8.363,0l0,9.426l-8.363,0l0,31.491l-9.426,0l0,-31.491l-25.887,0l0,-9.426l25.887,0l0,-64.701l9.426,0l0,64.701Zm-151.823,39.636l-18.824,0l0,-98.898l29.705,0l0,88.022c0,2.985 -1.228,5.697 -3.197,7.669l-0.013,0.018c-1.971,1.966 -4.686,3.189 -7.671,3.189Zm-192.721,-80.712l7.379,0l0,9.426l-7.379,0l0,22.963c0,4.128 -0.372,8.424 -1.075,12.72l10.39,19.921l-8.325,4.342l-5.472,-10.491c-2.633,7.848 -6.357,15.077 -10.891,20.524l-7.216,-6.002c3.903,-4.686 7.136,-11.137 9.436,-18.224c2.386,-7.368 3.726,-15.374 3.726,-22.79l0,-50.851l9.427,0l0,18.462Zm98.176,-0l7.379,-0l0,9.426l-7.379,-0l0,22.963c0,4.128 -0.371,8.424 -1.074,12.721l10.388,19.921l-8.323,4.341l-5.472,-10.493c-2.636,7.85 -6.357,15.079 -10.891,20.526l-7.216,-6.002c3.9,-4.686 7.138,-11.137 9.433,-18.224c2.389,-7.368 3.728,-15.374 3.728,-22.79l0,-50.851l9.427,-0l0,18.462Zm95.997,11.892l0,-20.651l-10.853,-0l0,80.045l9.401,-0c0.403,-0 0.767,-0.162 1.03,-0.42c0.262,-0.262 0.422,-0.629 0.422,-1.03l0,-18.768l-7.282,-0l0,-9.428l7.282,-0l0,-20.322l-7.282,-0l0,-9.426l7.282,-0Zm111.019,12.133l0,27.746c0,2.804 0.469,5.805 1.311,8.551c0.709,2.334 1.676,4.465 2.833,6.082l-8.556,4.104c-1.328,-2.187 -2.436,-4.752 -3.264,-7.462c-1.122,-3.672 -1.755,-7.633 -1.755,-11.275l0,-27.746l9.431,-0Zm-25.285,-0l0,27.746c0,3.642 -0.629,7.603 -1.751,11.275c-0.817,2.673 -1.905,5.202 -3.203,7.37l-8.551,-4.101c1.127,-1.605 2.07,-3.699 2.772,-5.992c0.837,-2.747 1.307,-5.748 1.307,-8.552l0,-27.746l9.426,-0Zm-142.426,42.55l-14.788,-0l0,-67.298l23.902,-0l0,58.182c0,2.516 -1.026,4.794 -2.673,6.442c-1.65,1.649 -3.931,2.674 -6.441,2.674Zm-98.177,-0l-14.786,-0l0,-67.298l23.902,-0l0,58.182c0,2.516 -1.028,4.794 -2.677,6.442c-1.647,1.649 -3.931,2.674 -6.439,2.674Zm92.815,-9.426l5.05,-0l0,-48.446l-5.05,-0l0,48.446Zm-98.175,-0l5.048,-0l0,-48.446l-5.048,-0l0,48.446Zm-46.131,-57.714l0,22.442c0,3.607 -0.632,7.502 -1.751,11.094c-1.122,3.581 -2.764,6.923 -4.801,9.462l-7.328,-5.89c1.277,-1.589 2.358,-3.851 3.145,-6.373c0.837,-2.685 1.309,-5.597 1.309,-8.293l0,-22.442l9.426,-0Zm98.179,-0l0,22.442c0,3.607 -0.636,7.502 -1.753,11.094c-1.124,3.581 -2.764,6.923 -4.803,9.462l-7.329,-5.89c1.279,-1.589 2.359,-3.851 3.15,-6.373c0.835,-2.685 1.307,-5.597 1.307,-8.293l0,-22.442l9.428,-0Zm132.765,7.049l21.389,-0l0,9.426l-21.389,-0l0,15.347l25.672,-0l0,-40.545l-25.672,-0l0,15.772Zm97.778,1.01c1.117,1.783 2.515,3.318 4.125,4.541c1.584,1.201 3.37,2.107 5.285,2.648c0.696,0.198 1.391,0.344 2.081,0.439c0.732,0.102 1.438,0.153 2.103,0.153l0,9.388c-1.174,-0 -2.307,-0.075 -3.391,-0.225c-1.136,-0.157 -2.249,-0.392 -3.335,-0.696c-3.064,-0.869 -5.925,-2.312 -8.45,-4.236c-2.504,-1.906 -4.683,-4.285 -6.408,-7.042l7.99,-4.97Zm0,-21.594c1.117,1.784 2.515,3.319 4.125,4.541c1.584,1.207 3.37,2.11 5.285,2.649c0.696,0.195 1.389,0.343 2.078,0.439c0.646,0.091 1.352,0.136 2.106,0.136l0,9.424c-1.087,-0 -2.221,-0.082 -3.393,-0.244c-1.136,-0.157 -2.247,-0.392 -3.333,-0.697c-3.064,-0.868 -5.925,-2.309 -8.45,-4.233c-2.504,-1.908 -4.683,-4.287 -6.408,-7.044l7.99,-4.971Zm-172.865,-40.994l0,9.835c0,0.551 0.023,1.323 0.289,1.959c0.284,0.638 0.814,1.145 1.823,1.145c1.035,-0 1.56,-0.462 1.806,-1.056c0.263,-0.615 0.263,-1.41 0.263,-2.048l0,-9.835l4.161,-0l0,9.835c0,2.731 -0.594,3.939 -1.633,4.996c-1.054,1.078 -2.528,1.759 -4.548,1.759c-1.195,-0 -3.351,-0.283 -4.688,-1.739c-1.342,-1.471 -1.629,-2.616 -1.629,-5.016l0,-9.835l4.156,-0Zm-155.518,9.836c0,2.046 -0.174,3.103 -0.53,3.872c-0.348,0.751 -1.098,1.518 -1.8,1.939c-0.993,0.637 -2.18,0.943 -3.283,0.943c-0.37,-0 -4.665,-0 -5.366,-4.287c-0.068,-0.399 -0.111,-0.814 -0.111,-1.256l4.424,-0c0,0.155 0.023,0.305 0.047,0.486c0.086,0.659 0.323,1.406 1.203,1.406c0.641,-0 0.953,-0.329 1.103,-0.747c0.155,-0.443 0.155,-0.946 0.155,-1.323l0,-10.867l4.158,-0l0,9.834Zm28.707,-1.519c0,-5.326 4.093,-8.626 8.584,-8.626c5.013,-0 8.602,3.917 8.602,8.451c0,4.533 -3.566,8.447 -8.625,8.447c-5.132,-0 -8.561,-4.069 -8.561,-8.248l0,-0.024Zm234.189,-0c0,-5.326 4.093,-8.626 8.584,-8.626c5.012,-0 8.603,3.917 8.603,8.451c0,4.533 -3.568,8.447 -8.626,8.447c-5.132,-0 -8.561,-4.069 -8.561,-8.248l0,-0.024Zm-149.064,-8.317l8.889,-0l0,3.654l-4.73,-0l0,2.771l4.557,-0l0,3.654l-4.557,-0l0,6.206l-4.159,-0l0,-16.285Zm79.485,-0l4.16,-0l0,12.63l4.818,-0l0,3.655l-8.978,-0l0,-16.285Zm155.887,16.285l0,-16.282l4.158,-0l0,6.116l5.329,-0l0,-6.116l4.156,-0l0,16.282l-4.156,-0l0,-6.512l-5.329,-0l0,6.512l-4.158,-0Zm-35.109,-16.282c3.015,-0 4.139,0.459 5.021,1.187c1.275,1.056 1.911,2.665 1.911,4.313c0,1.652 -0.679,3.39 -1.714,4.268c-1.126,0.945 -2.224,1.408 -4.756,1.408l-1.626,-0l0,5.106l-4.158,-0l0,-16.282l5.322,-0Zm-237.358,10.36l-4.86,-10.362l4.515,-0l2.415,6.535l2.445,-6.535l4.463,-0l-4.82,10.362l0,5.921l-4.158,-0l0,-5.921Zm190.315,-2.243c0,2.487 1.699,4.82 4.491,4.82c2.95,-0 4.379,-2.687 4.379,-4.775c0,-2.115 -1.429,-4.82 -4.423,-4.82c-2.882,-0 -4.447,2.464 -4.447,4.752l0,0.023Zm-234.189,-0c0,2.487 1.699,4.82 4.491,4.82c2.95,-0 4.379,-2.687 4.379,-4.775c0,-2.115 -1.429,-4.82 -4.424,-4.82c-2.881,-0 -4.446,2.464 -4.446,4.752l0,0.023Zm280.068,-0.592l1.516,-0c0.394,-0 1.058,-0 1.607,-0.244c0.549,-0.242 0.993,-0.747 0.993,-1.716c0,-0.969 -0.462,-1.429 -1.035,-1.673c-0.573,-0.241 -1.258,-0.241 -1.717,-0.241l-1.364,-0l0,3.874Z" style="fill:#fff;fill-rule:nonzero;"/><rect x="0" y="0" width="720" height="180" style="fill:none;"/></svg>