<?xml version="1.0" encoding="UTF-8" standalone="no"?><!DOCTYPE svg PUBLIC "-//W3C//DTD SVG 1.1//EN" "http://www.w3.org/Graphics/SVG/1.1/DTD/svg11.dtd"><svg width="100%" height="100%" viewBox="0 0 289 156" version="1.1" xmlns="http://www.w3.org/2000/svg" xmlns:xlink="http://www.w3.org/1999/xlink" xml:space="preserve" xmlns:serif="http://www.serif.com/" style="fill-rule:evenodd;clip-rule:evenodd;stroke-linejoin:round;stroke-miterlimit:2;"><path d="M77.594,14.398c34.98,-0 63.336,28.355 63.336,63.337c-0,34.98 -28.356,63.336 -63.336,63.336c-34.979,-0 -63.338,-28.356 -63.338,-63.336c-0,-34.982 28.359,-63.337 63.338,-63.337Zm133.135,-0c34.98,-0 63.335,28.355 63.335,63.337c-0,34.98 -28.355,63.336 -63.335,63.336c-34.982,-0 -63.336,-28.356 -63.336,-63.336c-0,-34.982 28.354,-63.337 63.336,-63.337Z" style="fill:#e9be2a;"/><path d="M76.809,8.009c10.069,-0.161 20.333,1.865 30.105,6.333c18.262,8.35 31.201,23.582 37.15,41.218c5.95,-17.637 18.889,-32.868 37.15,-41.218c9.776,-4.469 20.045,-6.495 30.118,-6.333l58.141,-0c6.514,-0 10.384,4.021 9.377,10.38c-1.443,9.093 -5.441,19.665 -7.397,25.788c0.83,1.511 1.609,3.06 2.335,4.649c16.041,35.084 0.601,76.531 -34.487,92.571c-28.098,12.846 -60.278,5.502 -80.222,-15.959c-3.202,4.71 -6.403,9.421 -9.598,14.13c-3.642,6.306 -7,6.035 -11.181,-0.117l-9.407,-13.844c-19.955,21.331 -52.04,28.602 -80.066,15.79c-35.087,-16.04 -50.527,-57.487 -34.484,-92.571c0.723,-1.582 1.498,-3.125 2.325,-4.63c-1.954,-6.12 -5.959,-16.704 -7.404,-25.807c-1.006,-6.359 2.866,-10.38 9.377,-10.38l58.168,-0Zm-23.725,124.07c29.939,13.688 65.309,0.514 78.999,-29.425c13.685,-29.937 0.514,-65.309 -29.428,-78.997c-29.94,-13.689 -65.304,-0.511 -78.994,29.426c-13.688,29.94 -0.516,65.309 29.423,78.996Zm181.961,-0c-29.94,13.688 -65.307,0.514 -78.997,-29.425c-13.688,-29.937 -0.514,-65.309 29.426,-78.997c29.939,-13.689 65.308,-0.511 78.996,29.426c13.685,29.94 0.514,65.309 -29.425,78.996Z" style="fill:#060001;"/><path d="M76.748,0.009l-58.107,-0c-5.865,-0 -10.412,2.146 -13.395,5.389c-3.133,3.406 -4.836,8.225 -3.884,14.241c0,0.001 0,0.003 0.001,0.004c1.286,8.104 4.474,17.341 6.653,23.854c-0.325,0.661 -0.641,1.329 -0.949,2.003c-17.88,39.102 -0.672,85.296 38.434,103.173c28.053,12.824 59.754,7.592 82.034,-10.829l4.148,6.104c4.113,6.051 8.62,8.135 12.196,8.23c3.844,0.103 8.504,-1.801 12.376,-8.347c1.384,-2.038 2.774,-4.085 4.164,-6.132c22.29,18.538 54.083,23.832 82.208,10.974c39.106,-17.877 56.314,-64.07 38.437,-103.172c-0.311,-0.681 -0.631,-1.356 -0.96,-2.024c2.179,-6.512 5.362,-15.739 6.647,-23.834c-0,-0.001 0,-0.002 0,-0.003c0.953,-6.016 -0.748,-10.836 -3.882,-14.242c-2.983,-3.243 -7.529,-5.389 -13.396,-5.389l-58.081,-0c-11.206,-0.17 -22.629,2.086 -33.504,7.057c-0.001,0 -0.001,0 -0.001,0.001c-14.517,6.637 -26.016,17.177 -33.823,29.808c-7.807,-12.631 -19.306,-23.171 -33.824,-29.809c0,0 0,0 0,0c-10.883,-4.976 -22.315,-7.231 -33.529,-7.056l0.037,-0.001Zm0.061,8c10.069,-0.161 20.333,1.865 30.105,6.333c18.262,8.35 31.201,23.582 37.15,41.218c5.95,-17.637 18.889,-32.868 37.15,-41.218c9.776,-4.469 20.045,-6.495 30.118,-6.333l58.141,-0c6.514,-0 10.384,4.021 9.377,10.38c-1.443,9.093 -5.441,19.665 -7.397,25.788c0.83,1.511 1.609,3.06 2.335,4.649c16.041,35.084 0.601,76.531 -34.487,92.571c-28.098,12.846 -60.278,5.502 -80.222,-15.959c-3.202,4.71 -6.403,9.421 -9.598,14.13c-3.642,6.306 -7,6.035 -11.181,-0.117l-9.407,-13.844c-19.955,21.331 -52.04,28.602 -80.066,15.79c-35.087,-16.04 -50.527,-57.487 -34.484,-92.571c0.723,-1.582 1.498,-3.125 2.325,-4.63c-1.954,-6.12 -5.959,-16.704 -7.404,-25.807c-1.006,-6.359 2.866,-10.38 9.377,-10.38l58.168,-0Zm-23.725,124.07c29.939,13.688 65.309,0.514 78.999,-29.425c13.685,-29.937 0.514,-65.309 -29.428,-78.997c-29.94,-13.689 -65.304,-0.511 -78.994,29.426c-13.688,29.94 -0.516,65.309 29.423,78.996Zm181.961,-0c-29.94,13.688 -65.307,0.514 -78.997,-29.425c-13.688,-29.937 -0.514,-65.309 29.426,-78.997c29.939,-13.689 65.308,-0.511 78.996,29.426c13.685,29.94 0.514,65.309 -29.425,78.996Zm-178.635,-7.276c0,0 -0,0 -0,0c-25.921,-11.85 -37.324,-42.472 -25.474,-68.393c11.853,-25.919 42.471,-37.329 68.392,-25.477c0,-0 0,-0 0.001,-0c25.923,11.851 37.326,42.475 25.478,68.395c-11.853,25.92 -42.476,37.326 -68.397,25.475Zm175.309,0c-0.001,0 -0.001,0 -0.001,0c-25.921,11.851 -56.542,0.445 -68.395,-25.476c-11.851,-25.919 -0.445,-56.543 25.477,-68.394c0,-0 0,-0 0,-0c25.921,-11.852 56.543,-0.443 68.394,25.476c11.848,25.922 0.445,56.544 -25.475,68.394Z" style="fill:#e9be2a;"/><path d="M77.87,31.007c25.88,-0 46.86,20.98 46.86,46.862c-0,25.88 -20.98,46.861 -46.86,46.861c-25.88,-0 -46.861,-20.981 -46.861,-46.861c-0,-25.882 20.981,-46.862 46.861,-46.862Zm132.181,-0c25.882,-0 46.859,20.98 46.859,46.862c-0,25.88 -20.977,46.861 -46.859,46.861c-25.88,-0 -46.861,-20.981 -46.861,-46.861c-0,-25.882 20.981,-46.862 46.861,-46.862Z" style="fill:#060001;"/><path d="M60.351,36.63c9.163,-0 16.592,7.429 16.592,16.592c-0,9.164 -7.429,16.593 -16.592,16.593c-9.161,-0 -16.59,-7.429 -16.59,-16.593c-0,-9.163 7.429,-16.592 16.59,-16.592Zm132.18,-0c9.164,-0 16.593,7.429 16.593,16.592c-0,9.164 -7.429,16.593 -16.593,16.593c-9.163,-0 -16.589,-7.429 -16.589,-16.593c-0,-9.163 7.426,-16.592 16.589,-16.592Z" style="fill:#fff;"/></svg>